<svg id="visual" viewBox="0 0 675 900" width="675" height="900" xmlns="http://www.w3.org/2000/svg" xmlns:xlink="http://www.w3.org/1999/xlink" version="1.1"><path d="M0 637L11.3 638.7C22.7 640.3 45.3 643.7 67.8 658.3C90.3 673 112.7 699 135.2 711.2C157.7 723.3 180.3 721.7 202.8 717.7C225.3 713.7 247.7 707.3 270.2 705.5C292.7 703.7 315.3 706.3 337.8 698.5C360.3 690.7 382.7 672.3 405 675.3C427.3 678.3 449.7 702.7 472.2 715.2C494.7 727.7 517.3 728.3 540 713.3C562.7 698.3 585.3 667.7 607.8 654.8C630.3 642 652.7 647 663.8 649.5L675 652L675 901L663.8 901C652.7 901 630.3 901 607.8 901C585.3 901 562.7 901 540 901C517.3 901 494.7 901 472.2 901C449.7 901 427.3 901 405 901C382.7 901 360.3 901 337.8 901C315.3 901 292.7 901 270.2 901C247.7 901 225.3 901 202.8 901C180.3 901 157.7 901 135.2 901C112.7 901 90.3 901 67.8 901C45.3 901 22.7 901 11.3 901L0 901Z" fill="#0066FF" stroke-linecap="round" stroke-linejoin="miter"></path></svg>