<svg id="visual" viewBox="0 0 675 900" width="675" height="900" xmlns="http://www.w3.org/2000/svg" xmlns:xlink="http://www.w3.org/1999/xlink" version="1.1"><rect x="0" y="0" width="675" height="900" fill="#1e293b"></rect><defs><linearGradient id="grad1_0" x1="0%" y1="100%" x2="100%" y2="0%"><stop offset="30%" stop-color="#1e293b" stop-opacity="1"></stop><stop offset="70%" stop-color="#1e293b" stop-opacity="1"></stop></linearGradient></defs><defs><linearGradient id="grad2_0" x1="0%" y1="100%" x2="100%" y2="0%"><stop offset="30%" stop-color="#1e293b" stop-opacity="1"></stop><stop offset="70%" stop-color="#1e293b" stop-opacity="1"></stop></linearGradient></defs><g transform="translate(675, 900)"><path d="M-478.1 0C-461 -45.4 -443.9 -90.8 -432.7 -140.6C-421.5 -190.4 -416.2 -244.7 -386.8 -281C-357.4 -317.4 -303.8 -335.7 -259.2 -356.8C-214.6 -377.8 -178.9 -401.6 -137.2 -422.3C-95.5 -442.9 -47.7 -460.5 0 -478.1L0 0Z" fill="#FBAE3C"></path></g><g transform="translate(0, 0)"><path d="M478.1 0C464.2 49 450.2 98.1 429.9 139.7C409.6 181.3 382.9 215.4 360.8 262.2C338.8 308.9 321.3 368.4 281 386.8C240.8 405.2 177.7 382.5 127 390.9C76.4 399.3 38.2 438.7 0 478.1L0 0Z" fill="#FBAE3C"></path></g></svg>