<svg id="visual" viewBox="0 0 900 600" width="900" height="600" xmlns="http://www.w3.org/2000/svg" xmlns:xlink="http://www.w3.org/1999/xlink" version="1.1"><rect x="0" y="0" width="900" height="600" fill="#ffffff"></rect><defs><linearGradient id="grad1_0" x1="33.3%" y1="100%" x2="100%" y2="0%"><stop offset="20%" stop-color="#ffffff" stop-opacity="1"></stop><stop offset="80%" stop-color="#ffffff" stop-opacity="1"></stop></linearGradient></defs><defs><linearGradient id="grad2_0" x1="0%" y1="100%" x2="66.7%" y2="0%"><stop offset="20%" stop-color="#ffffff" stop-opacity="1"></stop><stop offset="80%" stop-color="#ffffff" stop-opacity="1"></stop></linearGradient></defs><g transform="translate(900, 600)"><path d="M-297.5 0C-295.3 -31.5 -293 -62.9 -282.9 -91.9C-272.8 -120.9 -254.7 -147.4 -233.8 -169.9C-212.9 -192.4 -189.3 -210.9 -164.6 -226.5C-139.9 -242.2 -114.1 -255 -86.5 -266.3C-58.9 -277.6 -29.5 -287.5 0 -297.5L0 0Z" fill="#FBAE3C"></path></g><g transform="translate(0, 0)"><path d="M297.5 0C297.3 32.9 297.2 65.7 282.9 91.9C268.6 118.1 240.2 137.7 217.6 158.1C195.1 178.5 178.5 199.7 157.5 216.8C136.6 233.9 111.3 246.9 84.4 259.6C57.4 272.4 28.7 284.9 0 297.5L0 0Z" fill="#FBAE3C"></path></g></svg>